<?xml version="1.0" encoding="utf-8"?>
<!-- Svg Vector Icons : http://www.onlinewebfonts.com/icon -->
<!DOCTYPE svg PUBLIC "-//W3C//DTD SVG 1.1//EN" "http://www.w3.org/Graphics/SVG/1.1/DTD/svg11.dtd">
<svg version="1.1" xmlns="http://www.w3.org/2000/svg" xmlns:xlink="http://www.w3.org/1999/xlink" x="0px" y="0px" viewBox="0 0 1000 1000" enable-background="new 0 0 1000 1000" xml:space="preserve">
<metadata> Svg Vector Icons : http://www.onlinewebfonts.com/icon </metadata>
<g><path d="M983,263.9c-6-7.5-15.1-11.9-24.6-11.9h-732l-45.6-166c-3.7-13.6-15.6-23.1-29.5-23.5L42.6,59c-17.4-0.9-32,13.4-32.6,31.1c-0.6,17.7,13.2,32.6,30.7,33.2l85.5,2.6l169.5,617c0,0.2,0.1,0.3,0.2,0.4c1,3.3,2.4,6.3,4.2,9.1c0.1,0.2,0.3,0.4,0.5,0.7c1.8,2.6,4,4.9,6.5,6.8c0.2,0.2,0.4,0.3,0.6,0.4c2.5,1.8,5.3,3.4,8.3,4.4c0.2,0.1,0.4,0.1,0.6,0.1c3,1,6.1,1.5,9.4,1.6c0.1,0,0.1,0.1,0.2,0.1h0.1h537.3c14.9,0,27.8-10.6,30.9-25.5l94.8-450.3C991.3,281.3,989,271.5,983,263.9L983,263.9L983,263.9L983,263.9z M919.3,316.3l-23.7,112.6c-0.2,0-0.3-0.1-0.4-0.1H283.6L256,316.3H919.3L919.3,316.3L919.3,316.3L919.3,316.3z M868.5,557.4H315.3l-15.8-64.3h582.6L868.5,557.4L868.5,557.4L868.5,557.4L868.5,557.4z M350.8,702.2l-19.7-80.4h523.8l-16.8,80.4H350.8L350.8,702.2L350.8,702.2L350.8,702.2z M445.3,798.7c-37.6,0-68,31.9-68,71.2c0.1,39.3,30.5,71.1,68,71.1c37.6,0,68-31.9,68-71.1C513.3,830.5,482.9,798.7,445.3,798.7 M763.9,798.7c-37.6,0-68,31.9-68,71.2c0,39.3,30.4,71.1,68,71.1s68-31.9,68-71.1C831.9,830.5,801.5,798.7,763.9,798.7"/></g>
</svg>